# xmcd
#
# Track frame offsets:
#	182
#	53047
#	75387
#	97847
#	124492
#	149942
#	169637
#	191742
#	216027
#	238462
#	260710
#	281707
#
# Disc length: 4026 seconds
#
# Revision: 5
# Processed by: cddbd v1.5.2PL0 Copyright (c) Steve Scherf et al.
# Submitted via: EasyCDDAExtractor 15.3.0.1
#
DISCID=bb0fb80c
DTITLE=Varios Artistas - Salsa Mix
DYEAR=1900
DGENRE=Latin
TTITLE0=Salsa Mix - Megamix Version
TTITLE1=Jerry Rivera - Cara De Niño
TTITLE2=Marc Anthony - Palabras Del Alma
TTITLE3=Johnny Rivera and Ray Sepulveda - No Vale La Pena
TTITLE4=Grupo Niche - Duele Mas
TTITLE5=Salsa Mix - Radio Edit
TTITLE6=Rey Ruiz - Mi Media Mitad
TTITLE7=Gilberto Santa Rosa - Que Manera De Quererte
TTITLE8=Edgar Joel Y Su Orquesta - Si Tuviera Tus Ojos
TTITLE9=Frankie Ruiz - Tu Me Vuelves Loco
TTITLE10=Johnny Rivera - Por Eso Esta Conmigo
TTITLE11=Alex D' Castro - Y Todavia Me Amas
EXTD=
EXTT0=
EXTT1=Jerry Rivera\n
EXTT2=Marc Anthony\n
EXTT3=Johnny Rivera and Ray Sepulveda\n
EXTT4=Grupo Niche\n
EXTT5=
EXTT6=Rey Ruiz\n
EXTT7=Guilberto Santa Rosa\n
EXTT8=Edgar Joel y su Orquesta\n
EXTT9=Frankie Ruiz\n
EXTT10=Johnny Rivera\n
EXTT11=Alex D' Castro\n
PLAYORDER=
